<?xml version="1.0" encoding="UTF-8" standalone="no"?>
<svg
   xmlns:dc="http://purl.org/dc/elements/1.1/"
   xmlns:cc="http://creativecommons.org/ns#"
   xmlns:rdf="http://www.w3.org/1999/02/22-rdf-syntax-ns#"
   xmlns:svg="http://www.w3.org/2000/svg"
   xmlns="http://www.w3.org/2000/svg"
   xmlns:sodipodi="http://sodipodi.sourceforge.net/DTD/sodipodi-0.dtd"
   xmlns:inkscape="http://www.inkscape.org/namespaces/inkscape"
   width="500"
   height="200"
   version="1.1"
   id="svg6"
   sodipodi:docname="tryton.svg"
   inkscape:version="0.92.4 (5da689c313, 2019-01-14)">
  <metadata
     id="metadata12">
    <rdf:RDF>
      <cc:Work
         rdf:about="">
        <dc:format>image/svg+xml</dc:format>
        <dc:type
           rdf:resource="http://purl.org/dc/dcmitype/StillImage" />
      </cc:Work>
    </rdf:RDF>
  </metadata>
  <defs
     id="defs10" />
  <sodipodi:namedview
     pagecolor="#ffffff"
     bordercolor="#666666"
     borderopacity="1"
     objecttolerance="10"
     gridtolerance="10"
     guidetolerance="10"
     inkscape:pageopacity="0"
     inkscape:pageshadow="2"
     inkscape:window-width="1850"
     inkscape:window-height="1025"
     id="namedview8"
     showgrid="false"
     inkscape:zoom="0.598"
     inkscape:cx="43.478261"
     inkscape:cy="529.28991"
     inkscape:window-x="70"
     inkscape:window-y="27"
     inkscape:window-maximized="1"
     inkscape:current-layer="svg6" />
  <path
     inkscape:connector-curvature="0"
     style="fill:#072a44;stroke-width:1.07743859;fill-opacity:1"
     d="M 44.869566,46.662834 V 70.154229 H 66.075713 V 140.10801 H 87.02328 V 70.154229 h 21.20615 V 46.662834 Z m 86.893274,21.292342 c -5.86126,0 -10.12792,1.422219 -12.79997,4.266657 -2.67312,2.845516 -4.00915,7.070153 -4.00915,12.715931 V 140.1511 h 21.20615 V 92.956058 c 0,-2.45656 1.20673,-3.706389 3.66329,-3.706389 h 15.60347 v -21.29557 z m 85.77381,0 -14.61222,43.146024 -14.61114,-43.146024 h -22.80076 l 26.33475,67.627584 -10.73128,27.41327 h 22.80075 L 240.4667,67.955176 Z m 71.50637,20.171806 V 68.687835 H 272.44831 V 47.912663 h -21.07685 v 76.334367 c 0,10.602 5.81817,15.86098 17.41356,15.86098 h 20.12871 v -21.24925 h -13.27512 c -2.11178,0 -3.18922,-1.37912 -3.18922,-4.18046 V 88.126982 Z m 65.34235,-20.171806 h -31.42135 c -11.16226,0 -16.72292,5.646856 -16.72292,16.982588 v 38.835196 c 0,10.90368 5.68888,16.33505 17.0677,16.33505 h 31.29205 c 10.86166,0 16.29303,-5.60269 16.29303,-16.85222 V 85.023959 c 0.0431,-11.378829 -5.47339,-17.068783 -16.50851,-17.068783 z m 8.4051,34.094464 c -3.18922,0.86195 -5.81817,6.03366 -7.45588,9.13668 -1.6808,3.10302 -4.74181,10.34557 -9.26813,12.11256 -4.48214,1.767 -11.50704,-0.56026 -14.95592,-1.89629 -3.44781,-1.29292 -10.34449,-2.02558 -15.34488,-4.39595 -4.95622,-2.37144 -1.63771,-7.37183 1.20673,-5.68995 2.84444,1.6808 2.37036,3.79258 6.89668,4.39595 4.52524,0.60337 5.68888,-0.47407 5.94746,-2.37037 0.25859,-1.89629 -0.12929,-5.68887 -1.20673,-7.71446 -1.07744,-2.02666 -5.47339,-12.371147 -7.24039,-15.344877 -1.76699,-2.973726 -6.03365,-8.66368 -2.24107,-9.611826 3.83568,-0.948146 5.21481,3.447804 5.12861,6.292242 -0.12929,2.844433 2.49966,7.155265 4.87002,11.63741 a 13.275121,13.275121 0 0 0 6.50881,6.034731 c 2.62895,0.73266 2.97373,-1.767 3.4478,-2.71514 0.47408,-0.94815 2.15596,-11.982198 0.60337,-16.982586 -1.55151,-4.999315 1.29293,-7.111095 4.05225,-4.999315 2.75824,2.11178 2.49965,5.214803 1.20673,5.947461 -1.29293,0.732658 -1.07744,9.741118 -1.07744,9.741118 0,0 -0.73266,11.163342 2.58585,12.714852 3.31851,1.55151 9.74112,-5.12861 11.85398,-9.395263 2.15488,-4.267735 3.31851,-2.499658 4.26666,-2.499658 0.94814,0.0431 3.4478,4.783831 0.21549,5.602681 z m 74.91107,-34.094464 h -30.81798 c -11.16226,0 -16.72292,5.646856 -16.72292,16.982588 V 140.1511 h 21.07685 V 93.085351 c 0,-2.45656 1.24983,-3.706389 3.6633,-3.706389 h 14.8708 c 2.45656,0 3.66329,1.249829 3.66329,3.706389 v 47.066829 h 20.86137 V 85.067057 C 454.25315,73.64513 448.73667,67.955176 437.70154,67.955176 Z"
     id="path4-6" />
</svg>
